<?xml version="1.0" encoding="UTF-8" standalone="no"?>
<!DOCTYPE svg PUBLIC "-//W3C//DTD SVG 1.1//EN" "http://www.w3.org/Graphics/SVG/1.1/DTD/svg11.dtd">
<!-- Created with Vectornator (http://vectornator.io/) -->
<svg height="100%" stroke-miterlimit="10" style="fill-rule:nonzero;clip-rule:evenodd;stroke-linecap:round;stroke-linejoin:round;" version="1.1" viewBox="49.6002 50.8673 748.611 258.511" width="100%" xml:space="preserve" xmlns="http://www.w3.org/2000/svg" xmlns:vectornator="http://vectornator.io" xmlns:xlink="http://www.w3.org/1999/xlink">
<defs/>
<g id="Layer-2" vectornator:layerName="Layer 2">
<g opacity="1">
<g opacity="1">
<path d="M148.659 249.511L49.6025 187.328L49.6025 244.211L148.659 306.394L148.659 249.511Z" fill="#002c8d" fill-rule="nonzero" opacity="1" stroke="none" vectornator:layerName="path"/>
<path d="M247.721 244.211L148.659 306.394L148.659 249.511L247.718 187.325L247.721 244.211Z" fill="#002c8d" fill-rule="nonzero" opacity="1" stroke="none" vectornator:layerName="path"/>
<path d="M148.659 173.084L49.6002 235.267L49.6002 178.384L148.659 116.201L148.659 173.084Z" fill="#0087c9" fill-rule="nonzero" opacity="1" stroke="none" vectornator:layerName="path"/>
<path d="M148.662 107.751L49.6026 169.936L49.6026 113.051L148.662 50.8673L148.662 107.751Z" fill="#0087c9" fill-rule="nonzero" opacity="1" stroke="none" vectornator:layerName="path"/>
<path d="M247.718 113.051L148.662 50.8676L148.662 107.751L247.718 169.934L247.718 113.051Z" fill="#009bd5" fill-rule="nonzero" opacity="1" stroke="none" vectornator:layerName="path"/>
<path d="M247.718 178.384L148.659 116.201L148.659 173.084L247.718 235.267L247.718 178.384Z" fill="#009bd5" fill-rule="nonzero" opacity="1" stroke="none" vectornator:layerName="path"/>
</g>
<g opacity="1">
<path d="M392.786 270.502L323.116 270.502L310.028 309.379L268.714 309.379L336.203 120.256L380.853 120.256L447.829 309.379L404.975 309.379L392.786 270.502ZM381.751 237.912L358.143 163.495L333.765 237.912L381.751 237.912Z" fill="#002c8d" fill-rule="nonzero" opacity="1" stroke="none"/>
<path d="M552.142 241.377L511.982 241.377L511.982 309.379L472.72 309.379L472.72 120.256L555.093 120.256C574.082 120.256 589.222 125.131 600.513 134.883C611.804 144.634 617.45 159.731 617.45 180.175C617.45 202.5 611.804 218.281 600.513 227.52C589.222 236.758 573.099 241.377 552.142 241.377ZM570.618 201.987C575.75 197.453 578.316 190.268 578.316 180.431C578.316 170.594 575.729 163.58 570.554 159.389C565.379 155.198 558.13 153.102 548.806 153.102L511.982 153.102L511.982 208.787L548.806 208.787C558.13 208.787 565.4 206.52 570.618 201.987Z" fill="#002c8d" fill-rule="nonzero" opacity="1" stroke="none"/>
<path d="M644.009 120.256L683.271 120.256L683.271 309.379L644.009 309.379L644.009 120.256Z" fill="#002c8d" fill-rule="nonzero" opacity="1" stroke="none"/>
<path d="M770.18 89.7127C767.418 86.4086 763.464 84.7566 758.318 84.7566C751.277 84.7566 746.483 87.3836 743.937 92.6377C742.475 95.6709 741.608 100.492 741.337 107.1L718.831 107.1C719.211 97.0792 721.025 88.9815 724.275 82.8066C730.45 71.0527 741.418 65.1758 757.181 65.1758C769.639 65.1758 779.551 68.6288 786.917 75.5349C794.284 82.441 797.967 91.5814 797.967 102.956C797.967 111.677 795.367 119.422 790.167 126.193C786.755 130.689 781.149 135.699 773.349 141.224L764.087 147.805C758.291 151.922 754.323 154.901 752.184 156.742C750.044 158.584 748.243 160.724 746.781 163.161L798.211 163.161L798.211 183.554L717.531 183.554C717.748 175.105 719.563 167.386 722.975 160.399C726.279 152.545 734.079 144.23 746.375 135.455C757.045 127.818 763.951 122.347 767.093 119.043C771.914 113.898 774.324 108.264 774.324 102.144C774.324 97.1605 772.943 93.0168 770.18 89.7127Z" fill="#002c8d" fill-rule="nonzero" opacity="1" stroke="none"/>
</g>
</g>
</g>
</svg>
