<?xml version="1.0" encoding="UTF-8" standalone="no"?>
<!DOCTYPE svg PUBLIC "-//W3C//DTD SVG 1.1//EN" "http://www.w3.org/Graphics/SVG/1.1/DTD/svg11.dtd">
<!-- Created with Vectornator (http://vectornator.io/) -->
<svg height="100%" stroke-miterlimit="10" style="fill-rule:nonzero;clip-rule:evenodd;stroke-linecap:round;stroke-linejoin:round;" version="1.1" viewBox="2.17589 0.488316 11.6482 15.0234" width="100%" xml:space="preserve" xmlns="http://www.w3.org/2000/svg" xmlns:xlink="http://www.w3.org/1999/xlink">
<defs/>
<g id="Layer-1">
<g opacity="1">
<path d="M7.99992 12.1673L2.17602 8.51131L2.17602 11.8557L7.99992 15.5117L7.99992 12.1673Z" fill="#002c8d" fill-rule="nonzero" opacity="1" stroke="none"/>
<path d="M13.8241 11.8557L7.99994 15.5117L7.99994 12.1673L13.824 8.51116L13.8241 11.8557Z" fill="#002c8d" fill-rule="nonzero" opacity="1" stroke="none"/>
<path d="M7.99992 7.67389L2.17589 11.3299L2.17589 7.98548L7.99992 4.3295L7.99992 7.67389Z" fill="#0087c9" fill-rule="nonzero" opacity="1" stroke="none"/>
<path d="M8.00007 3.83271L2.17603 7.48882L2.17603 4.1443L8.00007 0.488316L8.00007 3.83271Z" fill="#0087c9" fill-rule="nonzero" opacity="1" stroke="none"/>
<path d="M13.824 4.14431L8.00008 0.488331L8.00008 3.83272L13.824 7.4887L13.824 4.14431Z" fill="#009bd5" fill-rule="nonzero" opacity="1" stroke="none"/>
<path d="M13.824 7.98549L7.99994 4.32951L7.99994 7.6739L13.824 11.3299L13.824 7.98549Z" fill="#009bd5" fill-rule="nonzero" opacity="1" stroke="none"/>
</g>
</g>
</svg>
